<svg width="52" height="52" viewBox="0 0 52 52" fill="none" xmlns="http://www.w3.org/2000/svg">
<path d="M46.4409 26.0401L50.6686 11.0562L44.4525 13.0634L43.7295 12.8928L42.916 4.86391L38.4372 11.5982L37.7142 11.3774L33.2153 6.73063L32.8337 18.4026L21.5965 1L19.1563 11.1867L18.3027 12.0397L6.4529 6.43958L7.40691 8.44681L12.0564 18.2621L11.2029 19.1052L1 21.5741L18.9152 33.0955L6.35248 33.4568L11.0623 38.0233L11.243 38.7459L4.49468 43.2421L12.5284 44.065L12.7092 44.7776L10.7007 51L25.6535 46.2128L27.5917 50.5986L43.0767 43.0413L51 27.2144L46.4409 26.0401Z" fill="#F28435"/>
<path d="M30.7048 35.4641C34.8644 35.4641 38.2365 32.0941 38.2365 27.937C38.2365 23.7799 34.8644 20.4099 30.7048 20.4099C26.5452 20.4099 23.1732 23.7799 23.1732 27.937C23.1732 32.0941 26.5452 35.4641 30.7048 35.4641Z" fill="#E36B12"/>
<path d="M19.6584 38.4749C20.4903 38.4749 21.1647 37.8009 21.1647 36.9695C21.1647 36.1381 20.4903 35.4641 19.6584 35.4641C18.8265 35.4641 18.1521 36.1381 18.1521 36.9695C18.1521 37.8009 18.8265 38.4749 19.6584 38.4749Z" fill="#E36B12"/>
<path d="M33.7174 40.4821C34.5494 40.4821 35.2238 39.8081 35.2238 38.9767C35.2238 38.1453 34.5494 37.4713 33.7174 37.4713C32.8855 37.4713 32.2111 38.1453 32.2111 38.9767C32.2111 39.8081 32.8855 40.4821 33.7174 40.4821Z" fill="#E36B12"/>
<path d="M12.6287 24.4243C13.4607 24.4243 14.1351 23.7503 14.1351 22.9189C14.1351 22.0875 13.4607 21.4135 12.6287 21.4135C11.7968 21.4135 11.1224 22.0875 11.1224 22.9189C11.1224 23.7503 11.7968 24.4243 12.6287 24.4243Z" fill="#E36B12"/>
<path d="M51 27.2144L43.0767 43.0414L7.40691 8.44681L6.45291 6.43958L18.2726 12.0397L19.1261 11.1867L21.5965 1L32.8337 18.4127L33.1651 6.73063L37.7142 11.4275L38.4373 11.5982L42.9161 4.85387L43.7295 12.9129L44.4525 13.0835L50.6686 11.0562L46.4409 26.0401L51 27.2144Z" fill="#E36B12"/>
<path d="M24.6795 27.4352C27.1752 27.4352 29.1985 25.4132 29.1985 22.9189C29.1985 20.4246 27.1752 18.4026 24.6795 18.4026C22.1837 18.4026 20.1605 20.4246 20.1605 22.9189C20.1605 25.4132 22.1837 27.4352 24.6795 27.4352Z" fill="#E36B12"/>
<path d="M50.6686 11.0562L44.4525 13.0634L43.7295 12.8828L42.916 4.85387L38.4372 11.5982L37.7142 11.3774L33.1651 6.68045L32.8337 18.4026L21.5965 1L19.1563 11.1867L18.3027 12.0397L6.4529 6.43958L12.0564 18.2521L11.2029 19.1052L1 21.5741L18.9152 33.0955L6.35248 33.4568L11.0623 38.0233L11.243 38.7459L4.49468 43.2421L12.5284 44.055L12.7092 44.7776L10.7007 50.99L25.6535 46.2027L27.5917 50.5986L43.0767 43.0413L51 27.2144L46.4409 26.0401L50.6686 11.0562Z" stroke="#001C63" stroke-linecap="round" stroke-linejoin="round"/>
<path d="M27.2202 27.2344L47.8066 47.8085" stroke="#001C63" stroke-linecap="round" stroke-linejoin="round"/>
<path d="M25.6537 38.2943L35.1536 35.1228" stroke="#001C63" stroke-linecap="round" stroke-linejoin="round"/>
<path d="M38.3267 25.6287L35.1534 35.1228" stroke="#001C63" stroke-linecap="round" stroke-linejoin="round"/>
</svg>
